<svg width="588" height="468" viewBox="0 0 588 468" fill="none" xmlns="http://www.w3.org/2000/svg">
<g clip-path="url(#clip0_42_21)">
<path opacity="0.55" d="M344.841 79.0897C307.636 77.7947 272.195 65.7719 238.358 52.6152C204.521 39.4585 171.007 24.8803 134.692 17.9106C111.335 13.4272 84.6209 12.7941 65.8054 25.3292C47.6912 37.4154 41.839 58.2209 38.6945 77.5473C36.326 92.0852 34.9348 107.383 41.4251 120.994C45.9264 130.444 53.9228 138.387 59.4473 147.469C78.6882 178.962 65.0925 217.799 44.242 248.549C34.4692 262.978 23.1155 276.751 15.5732 292.094C8.03093 307.438 4.53572 325.043 11.1352 340.709C17.683 356.249 33.2792 367.898 50.1689 376.099C84.4829 392.761 124.902 397.526 164.344 400.225C251.626 406.205 339.369 403.615 426.881 401.025C459.269 400.064 491.796 399.092 523.655 394.079C541.349 391.293 559.613 386.879 572.461 376.208C588.765 362.666 592.806 339.731 581.883 322.753C563.551 294.27 512.899 287.196 500.068 256.624C493.02 239.801 500.263 221.062 510.507 205.454C532.491 171.981 569.334 142.611 571.277 104.35C572.611 78.0652 554.893 51.7519 527.506 39.3146C498.803 26.2328 458.988 27.8903 437.821 49.467C416.01 71.6999 377.69 80.2292 344.841 79.0897Z" fill="#F2CC39"/>
<path d="M250.327 397.405L53.5606 396.444L34.0093 350.534L103.143 345.509L91.0939 295.173L227.832 277.43L96.8943 231.859L108.461 229.108L319.007 263.496L307.412 342.05L290.838 385.221L250.327 397.405Z" fill="#506AD4"/>
<path d="M56.5787 377.216C56.5787 377.216 68.651 375.282 75.8944 383.823C75.8944 383.823 70.5826 388.013 59.1541 382.211L56.5787 377.216Z" fill="#506AD4"/>
<path d="M55.314 377.026C55.314 377.026 47.6107 386.516 51.4048 397.083C51.4048 397.083 57.6824 394.568 58.3665 381.756L55.314 377.026Z" fill="#506AD4"/>
<path d="M48.3926 361.423C48.3926 361.423 53.2215 352.554 72.5371 364.968C72.5371 364.968 69.9617 370.931 61.4306 370.447C52.8996 369.964 50.6461 366.096 48.3926 361.423Z" fill="#506AD4"/>
<path d="M47.1451 360.784C47.1451 360.784 37.1251 359.633 36.1536 382.597C36.1536 382.597 42.5059 383.915 47.0186 376.652C51.5313 369.388 49.6802 365.314 47.1451 360.784Z" fill="#506AD4"/>
<path d="M41.3102 342.465C41.3102 342.465 46.9439 326.833 67.3863 337.953C67.3863 337.953 62.7183 352.295 43.4027 347.783L41.3102 342.465Z" fill="#506AD4"/>
<path d="M35.0326 319.098C35.0326 319.098 45.6562 303.306 64.4889 317.947C64.4889 317.947 57.8894 332.773 36.6422 324.715L35.0326 319.098Z" fill="#506AD4"/>
<path d="M32.7791 296.86C32.7791 296.86 45.1733 282.35 63.822 296.86C63.822 296.86 52.0717 309.59 32.7791 300.566V296.86Z" fill="#506AD4"/>
<path d="M30.8475 275.26C30.8475 275.26 43.4027 260.112 61.2696 274.454C61.2696 274.454 47.1049 287.83 30.8475 278.805V275.26Z" fill="#506AD4"/>
<path d="M31.9742 256.083C31.9742 256.083 45.1963 236.584 61.9135 249.798C61.9135 249.798 47.7487 266.558 31.9742 259.79V256.083Z" fill="#506AD4"/>
<path d="M35.0326 233.683C35.0326 233.683 49.0364 214.346 65.2937 229.171C65.2937 229.171 48.7145 245.931 35.0326 237.229V233.683Z" fill="#506AD4"/>
<path d="M39.7005 213.661C39.7005 213.661 56.2797 195.485 70.7434 202.726C70.7434 202.726 53.4686 222.029 38.9761 218.484L39.7005 213.661Z" fill="#506AD4"/>
<path d="M45.4952 194.68C45.4952 194.68 64.6269 172.418 75.7563 179.854C75.7563 179.854 61.6605 197.12 44.1385 198.846L45.4952 194.68Z" fill="#506AD4"/>
<path d="M53.8596 172.666C53.8596 172.666 70.6055 154.49 82.8387 159.002C82.8387 159.002 68.513 177.857 51.6118 178.34L53.8596 172.666Z" fill="#506AD4"/>
<path d="M61.4306 152.073C61.4306 152.073 79.9414 134.669 87.9896 137.731C87.9896 137.731 74.6296 157.069 60.6258 155.941L61.4306 152.073Z" fill="#506AD4"/>
<path d="M68.835 133.057C68.835 133.057 84.7704 112.263 93.4681 113.875C93.4681 113.875 83.8046 132.413 68.835 135.17V133.057Z" fill="#506AD4"/>
<path d="M76.8716 107.417C76.8716 107.417 90.956 91.4809 98.5672 91.5154C98.5672 91.5154 87.4492 112.81 76.291 112.614L76.8716 107.417Z" fill="#506AD4"/>
<path d="M81.6315 90.3471L95.2387 57.1504C95.2387 57.1504 95.9171 87.1587 79.9012 96.5053L81.6315 90.3471Z" fill="#506AD4"/>
<path d="M87.156 53.7374C87.156 53.7374 89.4095 26.0141 87.9608 23.758C87.9608 23.758 97.6876 46.808 87.064 65.9848L87.156 53.7374Z" fill="#506AD4"/>
<path d="M40.7812 342.097C40.7812 342.097 26.6739 333.343 17.5392 354.758C17.5392 354.758 30.0944 363.103 42.4426 347.558L40.7812 342.097Z" fill="#506AD4"/>
<path d="M34.5785 318.206C34.5785 318.206 17.2749 310.304 8.88177 332.664C8.88177 332.664 22.2475 341.872 36.1536 323.858L34.5785 318.206Z" fill="#506AD4"/>
<path d="M31.9743 298.189C31.9743 298.189 19.5801 283.68 0.931274 298.189C0.931274 298.189 12.6816 310.92 31.9743 301.896V298.189Z" fill="#506AD4"/>
<path d="M30.4221 275.26C30.4221 275.26 17.867 260.112 0 274.454C0 274.454 14.1648 287.83 30.4221 278.805V275.26Z" fill="#506AD4"/>
<path d="M31.9743 256.636C31.9743 256.636 23.1673 234.794 4.02411 244.187C4.02411 244.187 14.3718 263.554 31.1925 260.262L31.9743 256.636Z" fill="#506AD4"/>
<path d="M36.1421 233.574C36.1421 233.574 27.3868 211.353 7.97345 221.655C7.97345 221.655 19.8618 242.023 35.2798 237.004L36.1421 233.574Z" fill="#506AD4"/>
<path d="M41.5688 213.77C41.5688 213.77 38.1196 189.408 22.0233 187.226C22.0233 187.226 25.438 212.918 39.4016 218.161L41.5688 213.77Z" fill="#506AD4"/>
<path d="M45.9034 194.726C45.9034 194.726 44.5582 165.374 31.2499 164.349C31.2499 164.349 31.6983 186.628 44.403 198.881L45.9034 194.726Z" fill="#506AD4"/>
<path d="M55.2393 171.843C55.2393 171.843 51.2727 147.434 38.5681 144.453C38.5681 144.453 40.1432 168.09 53.9803 177.834L55.2393 171.843Z" fill="#506AD4"/>
<path d="M62.9367 152.274C62.9367 152.274 62.8045 126.847 55.0438 123.112C55.0438 123.112 50.2321 146.133 60.689 155.52L62.9367 152.274Z" fill="#506AD4"/>
<path d="M69.4271 132.77C69.4271 132.77 68.3405 106.589 60.3039 102.899C60.3039 102.899 57.556 123.619 68.2256 134.485L69.4271 132.77Z" fill="#506AD4"/>
<path d="M77.9926 109.507C77.9926 109.507 77.9466 88.2119 72.2094 83.2163C72.2094 83.2163 66.5067 106.543 74.9975 113.789L77.9926 109.507Z" fill="#506AD4"/>
<path d="M80.9589 89.2996L75.377 53.8583C75.377 53.8583 67.7944 82.8997 81.2234 95.6995L80.9589 89.2996Z" fill="#506AD4"/>
<path d="M82.0454 54.0713C82.0454 54.0713 67.7197 30.2442 68.0129 27.5968C68.0129 27.5968 69.5363 52.5691 87.5584 65.0064L82.0454 54.0713Z" fill="#506AD4"/>
<path d="M83.724 47.0325C83.724 47.0325 70.2031 13.1912 64.0865 10.4517C64.0865 10.4517 83.4021 20.2818 84.8508 46.0656L83.724 47.0325Z" fill="#506AD4"/>
<path d="M76.222 112.816L75.2964 112.534C86.7076 75.2796 89.5532 51.5274 83.3159 45.5707L83.977 44.8685C90.5937 51.1533 87.9091 74.6466 76.222 112.816Z" fill="#444053"/>
<path d="M44.7996 200.044L43.4314 199.554C44.6444 196.141 45.9493 192.677 47.3175 189.264C59.2288 159.543 69.3695 131.895 75.8713 110.669L77.0613 110.094C70.548 131.36 60.5855 160.067 48.6627 189.828C47.3003 193.177 46.0011 196.625 44.7996 200.044Z" fill="#444053"/>
<path d="M73.5891 405.094C73.4052 404.893 54.9116 384.041 42.0173 348.445C34.462 327.604 30.2572 305.696 29.5599 283.536C28.6746 255.836 34.4807 224.907 44.426 196.809L45.5067 198.075C23.1788 261.136 32.049 315.173 43.8166 347.714C56.573 382.988 74.8596 403.609 75.0378 403.817L73.5891 405.094Z" fill="#444053"/>
<path d="M362.588 360.824C362.588 360.824 349.555 376.749 359.903 400.824L255.852 446.003L245.866 448.098L241.267 427.954L244.343 402.533V388.64L362.588 360.824Z" fill="#D5D6DB"/>
<path d="M34.0093 350.534L178.026 324.249L368.854 354.683L250.327 397.405L34.0093 350.534Z" fill="#506AD4"/>
<path d="M34.0093 350.534L178.026 324.249L368.854 354.683L250.327 397.405L34.0093 350.534Z" fill="#506AD4"/>
<path d="M34.0093 350.528C34.0093 350.528 20.5401 376.076 36.0616 399.673L249.626 446.003C249.626 446.003 236.369 425.652 250.31 397.405L34.0093 350.528Z" fill="#506AD4"/>
<path opacity="0.1" d="M34.0093 350.528C34.0093 350.528 20.5401 376.076 36.0616 399.673L249.626 446.003C249.626 446.003 236.369 425.652 250.31 397.405L34.0093 350.528Z" fill="black"/>
<path opacity="0.1" d="M40.3731 359.385C40.3731 359.385 32.6756 378.079 40.3731 390.176V359.385Z" fill="black"/>
<path d="M249.626 446.003L368.854 395.069C368.854 395.069 375.522 396.507 371.211 401.399C366.899 406.291 251.925 450.895 251.925 450.895L36.0616 399.673L249.626 446.003Z" fill="#506AD4"/>
<path opacity="0.1" d="M249.626 446.003L368.854 395.069C368.854 395.069 375.522 396.507 371.211 401.399C366.899 406.291 251.925 450.895 251.925 450.895L36.0616 399.673L249.626 446.003Z" fill="black"/>
<path opacity="0.1" d="M239.853 402.55C239.853 402.55 228.356 416.363 239.853 437.082V402.55Z" fill="black"/>
<path opacity="0.1" d="M295.516 402.317L243.945 419.542L244.127 420.088L295.698 402.863L295.516 402.317Z" fill="black"/>
<path opacity="0.1" d="M305.846 400.603L243.929 424.175L244.133 424.713L306.05 401.141L305.846 400.603Z" fill="black"/>
<path opacity="0.1" d="M315.332 400.52L244.274 429.639L244.492 430.171L315.549 401.053L315.332 400.52Z" fill="black"/>
<path opacity="0.1" d="M325.648 398.027L245.104 434.453L245.34 434.977L325.884 398.551L325.648 398.027Z" fill="black"/>
<path opacity="0.1" d="M334.314 398.039L245.741 436.798L245.971 437.326L334.544 398.566L334.314 398.039Z" fill="black"/>
<path opacity="0.1" d="M353.271 394.816L247.077 440.734L247.305 441.263L353.498 395.344L353.271 394.816Z" fill="black"/>
<path opacity="0.3" d="M87.5125 353.342L188.69 332.048L250.327 343.846L167.419 370.608L87.5125 353.342Z" fill="white"/>
<path d="M368.854 354.683C368.854 354.683 374.085 356.796 371.015 360.059C367.945 363.322 250.31 397.405 250.31 397.405L368.854 354.683Z" fill="#506AD4"/>
<path d="M419.667 305.47C419.667 305.47 406.64 321.389 416.988 345.469L312.936 390.648L302.951 392.755L298.352 372.611L301.473 347.196V333.285L419.667 305.47Z" fill="#D5D6DB"/>
<path d="M91.0939 295.173L235.105 268.895L425.938 299.329L307.412 342.05L91.0939 295.173Z" fill="#3A3768"/>
<path d="M91.0709 295.173C91.0709 295.173 77.5959 320.721 93.1174 344.318L306.682 390.648C306.682 390.648 293.431 370.28 307.389 342.045L91.0709 295.173Z" fill="#3A3768"/>
<path opacity="0.1" d="M91.0709 295.173C91.0709 295.173 77.5959 320.721 93.1174 344.318L306.682 390.648C306.682 390.648 293.431 370.28 307.389 342.045L239.853 327.409L91.0709 295.173Z" fill="black"/>
<path opacity="0.1" d="M97.4519 304.031C97.4519 304.031 89.7602 322.718 97.4519 334.822V304.031Z" fill="black"/>
<path d="M306.705 390.648L425.938 339.714C425.938 339.714 432.601 341.153 428.29 346.045C423.978 350.937 309.004 395.541 309.004 395.541L93.1404 344.318L306.705 390.648Z" fill="#3A3768"/>
<path opacity="0.1" d="M306.705 390.648L425.938 339.714C425.938 339.714 432.601 341.153 428.29 346.045C423.978 350.937 309.004 395.541 309.004 395.541L93.1404 344.318L306.705 390.648Z" fill="black"/>
<path opacity="0.1" d="M296.932 347.196C296.932 347.196 285.434 361.009 296.932 381.728V347.196Z" fill="black"/>
<path opacity="0.1" d="M352.599 346.968L301.028 364.194L301.21 364.739L352.781 347.514L352.599 346.968Z" fill="black"/>
<path opacity="0.1" d="M362.936 345.251L301.019 368.823L301.223 369.361L363.14 345.789L362.936 345.251Z" fill="black"/>
<path opacity="0.1" d="M372.414 345.161L301.356 374.279L301.574 374.812L372.632 345.694L372.414 345.161Z" fill="black"/>
<path opacity="0.1" d="M382.736 342.669L302.192 379.094L302.429 379.619L382.973 343.193L382.736 342.669Z" fill="black"/>
<path opacity="0.1" d="M391.395 342.673L302.822 381.433L303.052 381.96L391.625 343.201L391.395 342.673Z" fill="black"/>
<path opacity="0.1" d="M410.355 339.45L304.162 385.369L304.39 385.897L410.583 339.978L410.355 339.45Z" fill="black"/>
<path opacity="0.45" d="M144.597 297.988L245.774 276.693L307.412 288.491L224.504 315.254L144.597 297.988Z" fill="white"/>
<path d="M425.938 299.329C425.938 299.329 431.164 301.441 428.1 304.698C425.036 307.956 307.412 342.045 307.412 342.045L425.938 299.329Z" fill="#3A3768"/>
<path d="M425.07 242.144C425.07 242.144 412.038 270.731 422.386 294.805L318.334 327.323L308.372 329.435L303.773 309.291L306.848 283.87V269.959L425.07 242.144Z" fill="#D5D6DB"/>
<path d="M96.5149 231.853L240.531 205.569L431.365 236.003L312.833 278.725L96.5149 231.853Z" fill="#506AD4"/>
<path d="M96.5149 231.848C96.5149 231.848 83.0227 257.395 98.5442 280.992L312.108 327.323C312.108 327.323 298.852 306.955 312.81 278.725L96.5149 231.848Z" fill="#506AD4"/>
<path opacity="0.1" d="M96.5149 231.848C96.5149 231.848 83.0227 257.395 98.5442 280.992L312.108 327.323C312.108 327.323 298.852 306.955 312.81 278.725L96.5149 231.848Z" fill="black"/>
<path opacity="0.1" d="M102.879 240.705C102.879 240.705 95.1812 259.398 102.879 271.496V240.705Z" fill="black"/>
<path d="M312.131 327.323L431.359 289.05C431.359 289.05 438.028 290.489 433.716 295.381C429.405 300.273 314.431 332.215 314.431 332.215L98.5672 280.992L312.131 327.323Z" fill="#506AD4"/>
<path opacity="0.1" d="M312.131 327.323L431.359 289.05C431.359 289.05 438.028 290.489 433.716 295.381C429.405 300.273 314.431 332.215 314.431 332.215L98.5672 280.992L312.131 327.323Z" fill="black"/>
<path opacity="0.1" d="M302.359 283.87C302.359 283.87 290.861 297.683 302.359 318.402V283.87Z" fill="black"/>
<path opacity="0.1" d="M358.028 283.641L306.457 300.867L306.639 301.412L358.21 284.187L358.028 283.641Z" fill="black"/>
<path opacity="0.1" d="M368.36 281.927L306.444 305.499L306.648 306.037L368.565 282.465L368.36 281.927Z" fill="black"/>
<path opacity="0.1" d="M377.833 281.84L306.775 310.958L306.993 311.491L378.051 282.372L377.833 281.84Z" fill="black"/>
<path opacity="0.1" d="M388.163 279.342L307.62 315.768L307.856 316.292L388.4 279.867L388.163 279.342Z" fill="black"/>
<path opacity="0.1" d="M396.825 279.352L308.252 318.112L308.482 318.639L397.055 279.88L396.825 279.352Z" fill="black"/>
<path opacity="0.1" d="M415.784 276.133L309.59 322.052L309.818 322.58L416.011 276.661L415.784 276.133Z" fill="black"/>
<path opacity="0.3" d="M150.018 234.662L251.195 213.367L312.833 225.166L229.925 251.928L150.018 234.662Z" fill="white"/>
<path d="M431.359 236.003C431.359 236.003 436.591 238.115 433.521 241.378C430.451 244.642 312.833 278.725 312.833 278.725L431.359 236.003Z" fill="#506AD4"/>
<path d="M178.451 61.2942C178.451 61.2942 156.606 59.9762 159.158 75.3199C159.158 75.3199 158.647 78.0307 161.102 79.2623C161.102 79.2623 161.142 78.1112 163.344 78.5084C164.129 78.6435 164.928 78.6821 165.723 78.6235C166.795 78.55 167.814 78.1299 168.627 77.4264C168.627 77.4264 174.772 74.8825 177.163 64.8222C177.163 64.8222 178.934 62.6294 178.888 62.0654L175.186 63.6424C175.186 63.6424 176.445 66.3071 175.456 68.5229C175.456 68.5229 175.335 63.7402 174.622 63.8496C174.479 63.8496 172.708 64.7762 172.708 64.7762C172.708 64.7762 174.875 69.4207 173.237 72.7933C173.237 72.7933 173.858 67.0725 172.03 65.11L169.431 66.6294C169.431 66.6294 171.967 71.4236 170.248 75.3372C170.248 75.3372 170.69 69.3344 168.885 66.9977L166.528 68.8394C166.528 68.8394 168.914 73.5645 167.46 76.8105C167.46 76.8105 167.27 69.8236 166.022 69.2941C166.022 69.2941 163.959 71.1128 163.648 71.861C163.648 71.861 165.281 75.3142 164.263 77.1041C164.263 77.1041 163.648 72.448 163.114 72.425C163.114 72.425 161.061 75.5098 160.849 77.6048C160.948 75.6517 161.556 73.7588 162.613 72.1142C161.431 72.3382 160.339 72.9045 159.475 73.743C159.475 73.743 159.791 71.5617 163.125 71.3718C163.125 71.3718 164.821 69.0293 165.275 68.8912C165.275 68.8912 161.958 68.6092 159.952 69.5013C159.952 69.5013 161.722 67.4466 165.879 68.3502L168.178 66.451C168.178 66.451 163.821 65.8754 161.97 66.5143C161.97 66.5143 164.102 64.6956 168.805 66.0193L171.34 64.5057C171.34 64.5057 167.621 63.7057 165.407 63.9934C165.407 63.9934 167.741 62.733 172.082 64.097L173.887 63.2855C173.887 63.2855 171.168 62.7503 170.368 62.664C169.569 62.5776 169.529 62.3589 169.529 62.3589C171.255 62.0752 173.026 62.2743 174.645 62.9345C174.645 62.9345 178.526 61.5359 178.451 61.2942Z" fill="#506AD4"/>
<path opacity="0.1" d="M485.777 124.361C485.777 124.361 463.932 123.043 466.484 138.387C466.484 138.387 465.972 141.098 468.427 142.329C468.427 142.329 468.467 141.178 470.669 141.575C471.455 141.707 472.254 141.746 473.049 141.69C474.111 141.612 475.119 141.192 475.923 140.493C475.923 140.493 482.075 137.949 484.46 127.889C484.46 127.889 486.231 125.696 486.185 125.132L482.494 126.709C482.494 126.709 483.753 129.374 482.764 131.59C482.764 131.59 482.644 126.807 481.937 126.916C481.793 126.916 480.016 127.843 480.016 127.843C480.016 127.843 482.184 132.488 480.551 135.86C480.551 135.86 481.172 130.139 479.338 128.177L476.74 129.696C476.74 129.696 479.275 134.49 477.556 138.404C477.556 138.404 477.999 132.401 476.194 130.065L473.842 131.906C473.842 131.906 476.222 136.631 474.768 139.877C474.768 139.877 474.578 132.89 473.331 132.361C473.331 132.361 471.273 134.18 470.957 134.928C470.957 134.928 472.589 138.381 471.577 140.171C471.577 140.171 470.957 135.515 470.428 135.492C470.428 135.492 468.375 138.577 468.163 140.672C468.262 138.718 468.873 136.824 469.933 135.181C468.749 135.406 467.656 135.972 466.789 136.81C466.789 136.81 467.111 134.629 470.439 134.439C470.439 134.439 472.135 132.096 472.589 131.952C472.589 131.952 469.278 131.676 467.266 132.568C467.266 132.568 469.036 130.514 473.193 131.417L475.492 129.518C475.492 129.518 471.129 128.942 469.284 129.581C469.284 129.581 471.411 127.762 476.119 129.086L478.648 127.573C478.648 127.573 474.929 126.773 472.716 127.06C472.716 127.06 475.05 125.8 479.39 127.164L481.201 126.352C481.201 126.352 478.476 125.817 477.677 125.731C476.878 125.645 476.837 125.426 476.837 125.426C478.563 125.138 480.335 125.338 481.954 126.001C481.954 126.001 485.846 124.603 485.777 124.361Z" fill="#506AD4"/>
<path opacity="0.1" d="M215.243 156.084C215.243 156.084 205.723 136.326 193.605 146.064C193.605 146.064 190.989 146.939 191.116 149.685C191.116 149.685 192.122 149.161 192.84 151.279C193.109 152.027 193.464 152.742 193.898 153.408C194.486 154.311 195.352 154.998 196.364 155.365C196.364 155.365 201.578 159.497 211.518 156.677C211.518 156.677 214.294 157.155 214.748 156.821L211.575 154.364C211.575 154.364 209.851 156.764 207.448 156.977C207.448 156.977 211.564 154.542 211.121 153.978C211.029 153.863 209.396 152.752 209.396 152.752C209.396 152.752 206.401 156.913 202.665 157.126C202.665 157.126 207.953 154.882 208.77 152.32L206.183 150.79C206.183 150.79 203.234 155.348 198.985 155.751C198.985 155.751 204.435 153.213 205.591 150.496L202.843 149.345C202.843 149.345 199.882 153.73 196.341 154.047C196.341 154.047 202.343 150.473 202.193 149.12C202.193 149.12 199.601 148.211 198.796 148.297C198.796 148.297 196.6 151.4 194.53 151.4C194.53 151.4 198.284 148.585 198.054 148.131C198.054 148.131 194.364 147.843 192.42 148.706C194.171 147.835 196.12 147.438 198.071 147.555C197.297 146.631 196.27 145.953 195.117 145.604C195.117 145.604 197.175 144.821 198.962 147.636C198.962 147.636 201.837 147.975 202.176 148.303C202.176 148.303 200.802 145.276 199.049 143.958C199.049 143.958 201.705 144.493 202.918 148.562L205.706 149.667C205.706 149.667 204.102 145.569 202.624 144.275C202.624 144.275 205.246 145.247 206.39 150.03L208.942 151.503C208.942 151.503 207.833 147.86 206.499 146.07C206.499 146.07 208.735 147.497 209.661 151.952L211.253 153.138C211.253 153.138 210.391 150.496 210.103 149.759C209.816 149.023 209.96 148.873 209.96 148.873C211.053 150.239 211.746 151.883 211.96 153.621C211.96 153.621 215.036 156.257 215.243 156.084Z" fill="#506AD4"/>
<path opacity="0.1" d="M435.866 96.4478C435.866 96.4478 426.352 76.6897 414.228 86.4277C414.228 86.4277 411.618 87.3025 411.739 90.0478C411.739 90.0478 412.751 89.5299 413.464 91.6421C413.732 92.3938 414.089 93.1107 414.527 93.7773C415.113 94.6785 415.977 95.3636 416.988 95.7283C416.988 95.7283 422.208 99.8607 432.141 97.0463C432.141 97.0463 434.918 97.5182 435.378 97.1844L432.222 94.7212C432.222 94.7212 430.497 97.1269 428.1 97.3398C428.1 97.3398 432.21 94.8996 431.768 94.3356C431.676 94.2204 430.043 93.1097 430.043 93.1097C430.043 93.1097 427.054 97.2708 423.311 97.4837C423.311 97.4837 428.606 95.2391 429.422 92.6838L426.795 91.1644C426.795 91.1644 423.852 95.7168 419.598 96.1255C419.598 96.1255 425.047 93.5816 426.209 90.8651L423.455 89.714C423.455 89.714 420.494 94.1053 416.959 94.4161C416.959 94.4161 422.955 90.8421 422.805 89.4953C422.805 89.4953 420.218 88.5802 419.414 88.6723C419.414 88.6723 417.218 91.7687 415.142 91.7687C415.142 91.7687 418.902 88.9543 418.672 88.4997C418.672 88.4997 414.981 88.2119 413.033 89.0752C414.783 88.2037 416.732 87.8068 418.684 87.9241C417.912 86.9992 416.887 86.3208 415.735 85.9731C415.735 85.9731 417.793 85.1903 419.58 88.0047C419.58 88.0047 422.455 88.35 422.794 88.6781C422.794 88.6781 421.42 85.645 419.661 84.327C419.661 84.327 422.317 84.868 423.53 88.9601L426.324 90.0651C426.324 90.0651 424.72 85.9616 423.242 84.6666C423.242 84.6666 425.864 85.6393 427.002 90.4219L429.56 91.8953C429.56 91.8953 428.445 88.2579 427.111 86.4623C427.111 86.4623 429.353 87.8896 430.273 92.3442L431.865 93.5298C431.865 93.5298 431.009 90.8881 430.716 90.1514C430.422 89.4147 430.572 89.2709 430.572 89.2709C431.662 90.6386 432.353 92.2821 432.567 94.019C432.567 94.019 435.688 96.6319 435.866 96.4478Z" fill="#506AD4"/>
<path opacity="0.1" d="M466.271 194.179C466.271 194.179 456.757 174.415 444.616 184.153C444.616 184.153 442.006 185.028 442.127 187.773C442.127 187.773 443.139 187.255 443.851 189.367C444.117 190.119 444.473 190.836 444.909 191.503C445.495 192.404 446.359 193.089 447.37 193.454C447.37 193.454 452.589 197.592 462.529 194.772C462.529 194.772 465.3 195.249 465.76 194.91L462.586 192.452C462.586 192.452 460.862 194.858 458.459 195.071C458.459 195.071 462.569 192.631 462.127 192.067C462.035 191.952 460.402 190.841 460.402 190.841C460.402 190.841 457.413 195.002 453.67 195.221C453.67 195.221 458.965 192.97 459.781 190.415L457.188 188.884C457.188 188.884 454.245 193.442 449.991 193.845C449.991 193.845 455.441 191.301 456.602 188.585L453.848 187.434C453.848 187.434 450.888 191.819 447.352 192.136C447.352 192.136 453.354 188.562 453.205 187.209C453.205 187.209 450.612 186.294 449.807 186.386C449.807 186.386 447.611 189.483 445.536 189.483C445.536 189.483 449.295 186.668 449.065 186.214C449.065 186.214 445.375 185.926 443.426 186.789C445.179 185.918 447.129 185.521 449.083 185.638C448.31 184.712 447.283 184.033 446.128 183.687C446.128 183.687 448.186 182.898 449.974 185.719C449.974 185.719 452.848 186.058 453.187 186.386C453.187 186.386 451.813 183.359 450.06 182.035C450.06 182.035 452.716 182.576 453.929 186.668L456.717 187.773C456.717 187.773 455.113 183.67 453.636 182.381C453.636 182.381 456.257 183.347 457.395 188.136L459.954 189.603C459.954 189.603 458.838 185.966 457.505 184.17C457.505 184.17 459.747 185.598 460.672 190.058L462.265 191.209C462.265 191.209 461.402 188.567 461.115 187.831C460.827 187.094 460.971 186.95 460.971 186.95C462.064 188.316 462.755 189.961 462.966 191.698C462.966 191.698 466.093 194.352 466.271 194.179Z" fill="#506AD4"/>
<path opacity="0.1" d="M116.095 451.31C123.394 451.31 129.311 450.647 129.311 449.83C129.311 449.014 123.394 448.351 116.095 448.351C108.796 448.351 102.879 449.014 102.879 449.83C102.879 450.647 108.796 451.31 116.095 451.31Z" fill="#506AD4"/>
<path opacity="0.1" d="M29.4563 426.17C36.7555 426.17 42.6726 425.508 42.6726 424.691C42.6726 423.874 36.7555 423.212 29.4563 423.212C22.1572 423.212 16.2401 423.874 16.2401 424.691C16.2401 425.508 22.1572 426.17 29.4563 426.17Z" fill="#506AD4"/>
<path opacity="0.1" d="M182.136 468.006C189.435 468.006 195.352 467.344 195.352 466.527C195.352 465.71 189.435 465.048 182.136 465.048C174.837 465.048 168.92 465.71 168.92 466.527C168.92 467.344 174.837 468.006 182.136 468.006Z" fill="#506AD4"/>
<path opacity="0.1" d="M520.562 431.638C527.861 431.638 533.778 430.976 533.778 430.159C533.778 429.342 527.861 428.68 520.562 428.68C513.263 428.68 507.346 429.342 507.346 430.159C507.346 430.976 513.263 431.638 520.562 431.638Z" fill="#506AD4"/>
<path opacity="0.1" d="M410.584 424.461C417.883 424.461 423.8 423.799 423.8 422.982C423.8 422.165 417.883 421.503 410.584 421.503C403.284 421.503 397.367 422.165 397.367 422.982C397.367 423.799 403.284 424.461 410.584 424.461Z" fill="#506AD4"/>
<path opacity="0.1" d="M339.438 459.465C348.07 459.465 355.068 458.262 355.068 456.777C355.068 455.293 348.07 454.089 339.438 454.089C330.805 454.089 323.807 455.293 323.807 456.777C323.807 458.262 330.805 459.465 339.438 459.465Z" fill="#506AD4"/>
<path d="M346.411 429.762C346.411 429.762 324.646 441.019 335.891 454.279C335.891 454.279 336.949 457.157 340.007 456.956C340.007 456.956 339.398 455.839 341.731 454.947C342.562 454.626 343.351 454.206 344.083 453.698C345.071 453.014 345.81 452.026 346.187 450.884C346.187 450.884 350.636 444.921 347.187 433.888C347.187 433.888 347.635 430.769 347.244 430.262L344.6 433.894C344.6 433.894 347.331 435.73 347.647 438.429C347.647 438.429 344.773 433.9 344.198 434.4C344.071 434.504 342.887 436.386 342.887 436.386C342.887 436.386 347.624 439.603 347.975 443.782C347.975 443.782 345.307 437.928 342.427 437.094L340.777 440.041C340.777 440.041 345.951 443.195 346.526 447.937C346.526 447.937 343.519 441.923 340.45 440.708L339.237 443.822C339.237 443.822 344.226 446.999 344.686 450.947C344.686 450.947 340.513 444.346 339.012 444.553C339.012 444.553 338.07 447.476 338.196 448.38C338.196 448.38 341.72 450.74 341.783 453.059C341.783 453.059 338.529 448.944 338.029 449.215C338.029 449.215 337.822 453.353 338.823 455.505C338.823 455.505 337.098 452.432 337.38 449.215C336.372 450.107 335.646 451.276 335.293 452.576C335.293 452.576 334.356 450.302 337.443 448.207C337.443 448.207 337.736 444.99 338.093 444.593C338.093 444.593 334.753 446.228 333.333 448.23C333.333 448.23 333.856 445.243 338.386 443.759L339.535 440.605C339.535 440.605 335.005 442.527 333.609 444.219C333.609 444.219 334.615 441.255 339.892 439.833L341.456 436.956C341.456 436.956 337.431 438.314 335.465 439.833C335.465 439.833 336.989 437.284 341.938 436.11L343.209 434.297C343.209 434.297 340.289 435.339 339.472 435.713C338.656 436.087 338.495 435.903 338.495 435.903C339.987 434.639 341.8 433.814 343.732 433.52C343.732 433.52 346.612 429.957 346.411 429.762Z" fill="#506AD4"/>
<path d="M411.009 217.143C407.249 206.915 386.554 205.954 377.575 208.561C371.194 210.42 357.742 212.515 350.556 213.569L350.09 213.125C351.021 212.849 351.044 212.17 350.929 211.163C350.862 209.835 350.882 208.505 350.987 207.18C355.39 208.55 359.311 205.31 359.311 205.31C364.485 203.008 363.094 193.154 364.082 190.461C364.824 188.447 365.623 176.579 365.979 170.663H366.054L366.094 168.677C366.146 167.82 366.169 167.319 366.169 167.319C366.169 167.319 366.675 152.85 367.664 149.92C368.584 147.227 369.331 133.656 369.446 131.503C369.446 131.319 369.446 131.221 369.446 131.221L369.371 129.967C369.423 129.052 369.446 128.033 369.44 126.962C369.44 122.042 368.929 115.843 368.865 114.842C368.865 114.698 368.865 114.525 368.865 114.318C368.906 112.217 368.641 101.697 359.702 97.7197C356.408 96.2463 352.447 94.491 348.613 92.7816C347.624 84.235 345.365 75.7343 345.56 67.1244C345.56 65.8294 345.675 64.5345 345.801 63.2453C345.801 63.6194 345.761 63.9992 345.756 64.3964C345.756 65.2309 345.756 66.0711 345.756 66.9057C346.095 56.1375 350.159 45.3117 349.78 34.7737C349.745 35.8039 349.67 36.8399 349.573 37.8758C349.771 34.3114 349.398 30.7382 348.469 27.2918C348.124 26.0774 347.658 24.8227 346.664 24.0112C345.724 23.3577 344.646 22.9303 343.514 22.7623C340.793 22.0652 338.03 21.5499 335.241 21.2199C334.817 19.9213 334.189 18.6992 333.379 17.5998C327.549 9.58839 318.915 2.06042 308.705 0.333824C303.583 -0.529475 297.691 0.189941 294.207 3.85608C293.843 4.17814 293.501 4.52424 293.184 4.89204C291.31 7.13086 290.505 10.0718 288.585 12.3049C288.458 12.4545 288.315 12.5927 288.177 12.7366C284.417 16.1034 278.559 16.8056 274.38 19.8271C273.643 20.3695 272.953 20.9721 272.316 21.6285C270.632 23.2993 269.122 25.137 267.809 27.1134C265.929 29.7608 263.998 32.5176 263.4 35.6773C262.198 42.0081 266.504 48.0109 267.303 54.3821C269.085 68.638 253.328 81.2882 256.311 95.3543C257.108 98.8098 258.866 101.969 261.382 104.465C255.236 110.036 250.005 115.44 250.005 115.44V115.763H249.034L249.131 116.914H249.034L249.568 123.158L249.034 132.252C249.034 132.252 249.034 132.349 249.034 132.534V132.58V132.827C249.034 132.827 249.034 132.925 249.034 133.109H249.068C249.246 136.442 249.953 148.424 250.793 150.951C251.782 153.88 252.282 168.349 252.282 168.349C252.282 168.349 253.374 188.798 254.374 191.503C255.374 194.208 253.955 204.032 259.146 206.351C260.664 207.518 262.462 208.264 264.36 208.515C264.095 210.668 264.262 212.228 265.119 212.717C265.485 212.933 265.901 213.051 266.326 213.062C265.974 213.585 265.66 214.133 265.389 214.702C263.328 214.487 261.304 214.009 259.364 213.281C253.788 210.979 235.283 205.799 229.908 209.442C224.533 213.085 211.598 216.389 217.571 231.053C223.544 245.718 226.326 246.086 226.326 246.086C228.165 247.422 229.778 249.045 231.103 250.892C232.897 253.591 249.609 259.767 253.788 259.767C255.564 259.739 257.34 259.828 259.105 260.031C259.105 260.031 254.57 264.014 255.173 266.328C255.777 268.641 253.794 287.162 253.794 287.162C253.794 287.162 258.393 291.801 260.359 285.717L260.428 285.809C260.795 286.31 262.785 288.572 266.527 285.717C268.059 284.554 269.685 283.522 271.39 282.633L289.51 280.066C291.399 279.947 293.294 279.934 295.184 280.025C298.059 280.261 300.881 278.558 302.658 277.24C306.411 278.667 310.631 280.227 312.637 280.797C316.707 281.948 335.414 286.972 339.788 285.401C340.698 285.039 341.506 284.462 342.145 283.72L346.319 283.853L344.364 284.244C344.364 284.244 348.17 284.307 353.344 284.376L353.125 284.503L359.616 284.445C369.112 284.532 379.782 284.561 381.185 284.244C383.381 283.755 394.792 284.1 398.155 284.244H399.092C399.092 284.244 411.63 281.74 406.456 269.004C402.478 259.22 390.25 256.377 384.824 255.594C386.353 255.289 387.669 255.053 388.543 254.915C392.331 254.339 399.69 250.886 400.288 249.706C400.886 248.526 407.054 245.102 408.646 243.151C410.239 241.2 414.786 227.37 411.009 217.143ZM307.159 245.764L306.544 245.965L306.13 246.103L305.336 246.886C304.704 246.46 304.026 246.011 303.319 245.551C304.566 245.626 305.848 245.701 307.159 245.764Z" fill="url(#paint0_linear_42_21)"/>
<path d="M343.812 185.08C343.812 185.08 352.608 208.101 357.609 205.799C362.611 203.497 361.254 193.713 362.208 191.031C363.163 188.349 364.22 168.009 364.22 168.009C364.22 168.009 364.703 153.621 365.658 150.709C366.543 148.033 367.261 134.536 367.382 132.413C367.382 132.229 367.382 132.131 367.382 132.131L366.434 115.44L361.064 114.099L348.613 118.704L346.888 128.562L346.215 132.413L345.928 134.053L343.812 185.08Z" fill="#BE6F72"/>
<path opacity="0.1" d="M346.71 181.224C346.71 181.224 355.103 188.101 357.632 188.706C360.162 189.31 361.714 194.674 361.714 194.674" fill="black"/>
<path d="M275.029 186.087C275.029 186.087 266.234 209.108 261.232 206.806C256.231 204.504 257.588 194.72 256.633 192.038C255.679 189.356 254.621 169.017 254.621 169.017C254.621 169.017 254.138 154.628 253.184 151.716C252.299 149.04 251.58 135.544 251.46 133.42C251.46 133.236 251.46 133.138 251.46 133.138L252.414 116.447L257.783 115.107L270.235 119.711L271.959 129.57L272.632 133.42L272.92 135.06L275.029 186.087Z" fill="#BE6F72"/>
<path d="M332.304 62.8884H312.672V93.524H332.304V62.8884Z" fill="#3E373A"/>
<path opacity="0.1" d="M332.304 62.8884H312.672V93.524H332.304V62.8884Z" fill="black"/>
<path d="M271.58 209.016C271.58 209.016 264.871 216.4 267.36 217.741C269.85 219.082 285.952 244.216 285.952 244.216C285.952 244.216 338.84 250.736 348.814 240.952C358.788 231.168 358.587 213.689 358.587 213.689C358.587 213.689 350.573 215.416 349.699 214.478C348.825 213.54 344.025 209.016 344.025 209.016C344.025 209.016 276.179 204.895 271.58 209.016Z" fill="#4B4B5B"/>
<path opacity="0.02" d="M271.58 209.016C271.58 209.016 264.871 216.4 267.36 217.741C269.85 219.082 285.952 244.216 285.952 244.216C285.952 244.216 338.84 250.736 348.814 240.952C358.788 231.168 358.587 213.689 358.587 213.689C358.587 213.689 350.573 215.416 349.699 214.478C348.825 213.54 344.025 209.016 344.025 209.016C344.025 209.016 276.179 204.895 271.58 209.016Z" fill="black"/>
<path d="M366.79 115.682L349.544 129.495L344.33 129.875L342.416 130.013L310.263 132.372L276.921 129.932L271.96 129.57L265.636 129.109L252.414 116.447C252.414 116.447 261.773 106.41 269.97 99.6362C273.201 96.9599 276.254 94.7959 278.479 93.9442L278.858 93.8118C280.257 93.2654 281.507 92.3935 282.503 91.2679C288.976 84.586 294.96 68.097 294.96 68.097C294.96 68.097 323.514 53.3288 320.065 72.7013C316.615 92.0737 332.902 87.2852 332.902 87.2852L338.271 89.737L340.392 90.7097L345.802 93.1902L358.006 98.7959C367.583 103.21 366.79 115.682 366.79 115.682Z" fill="#BE6F72"/>
<path opacity="0.1" d="M308.924 83.8723C323.106 83.8723 334.603 72.362 334.603 58.1633C334.603 43.9646 323.106 32.4543 308.924 32.4543C294.741 32.4543 283.244 43.9646 283.244 58.1633C283.244 72.362 294.741 83.8723 308.924 83.8723Z" fill="black"/>
<path opacity="0.1" d="M366.83 133.995H251.46C251.46 133.811 251.46 133.713 251.46 133.713L252.414 117.023C252.414 117.023 261.773 106.986 269.97 100.212L342.404 97.3341L345.773 93.7773L357.977 99.383C367.56 103.792 366.79 116.263 366.79 116.263C366.79 116.263 368.101 130.715 366.83 133.995Z" fill="black"/>
<path d="M366.83 133.42H251.46C251.46 133.236 251.46 133.138 251.46 133.138L252.414 116.447C252.414 116.447 261.773 106.41 269.97 99.6362L342.404 96.7585L345.773 93.2017L357.977 98.8074C367.56 103.216 366.79 115.688 366.79 115.688C366.79 115.688 368.101 130.139 366.83 133.42Z" fill="#E7C7CA"/>
<path opacity="0.1" d="M290.43 86.6177C290.43 86.6177 308.63 109.835 332.873 86.14C357.115 62.4453 335.557 138.991 335.557 138.991L283.244 145.207L290.43 86.6177Z" fill="black"/>
<path d="M290.43 87.7687C290.43 87.7687 308.63 110.986 332.873 87.291C357.115 63.5964 335.557 140.142 335.557 140.142L283.244 146.358L290.43 87.7687Z" fill="#E7C7CA"/>
<path opacity="0.1" d="M340.363 91.8435L342.289 121.247L344.353 131.031L345.928 138.513C345.928 138.513 349.952 196.067 348.802 198.944C347.653 201.822 349.377 204.124 349.619 205.655C349.86 207.186 349.377 211.031 349.567 212.757C349.757 214.484 349.567 215.249 345.163 214.633C340.76 214.018 334.62 212.947 334.62 212.947C334.62 212.947 319.099 214.098 313.735 212.182C308.372 210.265 298.214 210.259 298.214 210.259C298.214 210.259 282.882 210.645 277.904 210.069C272.925 209.494 270.235 216.21 266.981 214.288C263.727 212.366 270.81 193.765 273.109 188.389C275.409 183.014 270.045 169.396 270.045 169.396L276.944 131.083L278.478 122.399V95.0952L278.858 94.9629C280.257 94.4165 281.507 93.5446 282.503 92.419L284.227 119.895L338.265 121.817V90.8939" fill="black"/>
<path d="M340.363 90.6924L342.289 120.096L344.353 129.88L345.928 137.362C345.928 137.362 349.952 194.916 348.802 197.793C347.653 200.671 349.377 202.973 349.619 204.504C349.86 206.035 349.377 209.879 349.567 211.606C349.757 213.333 349.567 214.098 345.163 213.482C340.76 212.866 334.62 211.796 334.62 211.796C334.62 211.796 319.099 212.947 313.735 211.031C308.372 209.114 298.214 209.108 298.214 209.108C298.214 209.108 282.882 209.494 277.904 208.918C272.925 208.343 270.235 215.059 266.981 213.137C263.727 211.215 270.81 192.613 273.109 187.238C275.409 181.863 270.045 168.245 270.045 168.245L276.944 129.932L278.478 121.247V93.9442L278.858 93.8118C280.257 93.2655 281.507 92.3935 282.503 91.268L284.227 118.744L338.265 120.666V89.7428" fill="#E7C7CA"/>
<path opacity="0.1" d="M346.578 29.3291C346.25 28.1263 345.796 26.8774 344.853 26.0716C343.953 25.4244 342.913 24.9986 341.818 24.8285C339.196 24.1382 336.53 23.6267 333.839 23.2976C333.454 22.0196 332.872 20.8098 332.114 19.712C326.48 11.7466 318.145 4.23593 308.337 2.53811C303.204 1.64603 297.254 2.44602 293.966 6.49777C292.16 8.72508 291.384 11.6776 289.562 13.8646C286.05 18.112 279.709 18.6358 275.282 21.922C272.92 23.6486 271.206 26.1522 269.534 28.581C267.723 31.2111 265.86 33.9507 265.285 37.0931C264.136 43.3721 268.28 49.3577 269.045 55.6943C270.77 69.8697 255.593 82.445 258.462 96.4305C260.134 104.586 267.659 110.33 275.443 113.242C278.185 114.272 281.318 115.296 282.6 117.932C283.175 119.083 283.273 120.413 283.813 121.575C285.63 125.455 291.603 125.604 294.811 122.778C298.018 119.952 299.03 115.383 299.41 111.118C300.95 92.4938 293.5 74.0941 294.368 55.4238C294.627 49.7778 296.213 43.3721 301.266 40.8168C308.067 37.3636 316.248 43.1189 323.732 42.0196C327.274 50.6477 328.026 60.1701 325.882 69.2481C324.692 74.2149 322.634 79.0321 322.485 84.1544C322.261 91.9528 326.463 99.0779 330.096 105.973C330.876 107.262 331.397 108.691 331.631 110.18C331.688 111.691 331.407 113.195 330.809 114.583C328.757 120.114 325.216 125.247 324.813 131.135C324.695 131.822 324.85 132.529 325.244 133.103C325.649 133.487 326.172 133.722 326.727 133.771C332.936 134.836 338.305 129.328 341.335 123.797C344.713 117.688 346.681 110.9 347.095 103.93C347.722 92.2118 343.525 80.6839 343.784 68.9546C344.083 55.6195 350.102 42.1923 346.578 29.3291Z" fill="black"/>
<path d="M347.152 28.7536C346.825 27.5508 346.371 26.3018 345.428 25.4961C344.528 24.8489 343.488 24.423 342.393 24.2529C339.77 23.5627 337.105 23.0512 334.413 22.722C334.029 21.4441 333.447 20.2342 332.689 19.1365C327.055 11.1711 318.719 3.6604 308.912 1.96258C303.779 1.0705 297.829 1.87049 294.54 5.92224C292.735 8.14955 291.959 11.102 290.137 13.2891C286.624 17.5365 280.284 18.0602 275.857 21.3465C273.494 23.0731 271.781 25.5767 270.108 28.0054C268.298 30.6356 266.435 33.3751 265.86 36.5175C264.71 42.7966 268.855 48.7821 269.62 55.1188C271.344 69.2941 256.168 81.8695 259.036 95.855C260.709 104.01 268.234 109.754 276.018 112.666C278.76 113.696 281.893 114.721 283.175 117.357C283.75 118.508 283.848 119.837 284.388 121C286.205 124.879 292.178 125.029 295.385 122.203C298.593 119.377 299.605 114.807 299.984 110.543C301.525 91.9183 294.075 73.5185 294.943 54.8483C295.201 49.2023 296.788 42.7966 301.841 40.2412C308.642 36.788 316.822 42.5434 324.307 41.4441C327.849 50.0721 328.601 59.5945 326.457 68.6726C325.267 73.6394 323.209 78.4566 323.06 83.5788C322.835 91.3773 327.038 98.5024 330.671 105.397C331.451 106.687 331.972 108.116 332.206 109.604C332.263 111.115 331.982 112.619 331.384 114.007C329.332 119.538 325.79 124.672 325.388 130.56C325.27 131.247 325.425 131.953 325.819 132.528C326.224 132.912 326.747 133.147 327.302 133.196C333.511 134.26 338.88 128.752 341.91 123.222C345.287 117.113 347.256 110.324 347.67 103.354C348.296 91.6363 344.1 80.1084 344.359 68.379C344.658 55.0439 350.676 41.6168 347.152 28.7536Z" fill="#3E373A"/>
<path d="M334.454 283.582L357.259 284.313L353.988 267.381L336.517 269.044L334.454 283.582Z" fill="#C3C7D9"/>
<path d="M405.117 243.45C403.582 245.367 397.643 248.82 397.068 249.971C396.494 251.122 389.405 254.575 385.761 255.151C382.116 255.726 370.624 258.224 368.515 259.565C367.003 260.532 354.867 263.594 346.894 265.292C344.734 265.803 342.548 266.197 340.346 266.472C336.897 266.661 299.151 253.81 299.151 253.81L306.429 246.328L306.831 246.19C308.889 245.493 318.398 242.276 323.675 240.745C329.619 239.019 336.517 231.922 336.517 231.922C336.517 231.922 346.67 228.469 348.015 228.084C349.36 227.698 344.566 214.656 344.566 214.656C344.566 214.656 366.6 211.595 375.223 208.999C383.846 206.403 403.777 207.364 407.416 217.534C411.055 227.704 406.675 241.534 405.117 243.45Z" fill="#4B4B5B"/>
<path d="M304.704 275.87C304.704 275.87 300.301 280.474 295.891 280.094C291.482 279.715 276.064 281.245 276.064 281.245C273.27 282.361 270.654 283.879 268.298 285.752C264.693 288.595 262.779 286.327 262.422 285.844L262.359 285.752C260.439 291.801 256.036 287.191 256.036 287.191C256.036 287.191 257.95 268.774 257.364 266.472C256.777 264.169 261.152 260.216 261.152 260.216L266.326 258.898L279.433 255.536L298.214 262.057L304.704 275.87Z" fill="#E7C7CA"/>
<path opacity="0.1" d="M266.303 258.898L262.422 285.844L262.359 285.752C260.439 291.801 256.036 287.191 256.036 287.191C256.036 287.191 257.95 268.774 257.364 266.472C256.777 264.169 261.152 260.216 261.152 260.216L266.303 258.898Z" fill="black"/>
<path opacity="0.1" d="M293.425 182.248C293.425 182.248 303.577 185.701 312.396 182.248H293.425Z" fill="black"/>
<path opacity="0.1" d="M328.084 188.775C328.084 188.775 332.298 190.881 335.557 188.775H328.084Z" fill="black"/>
<path opacity="0.1" d="M328.084 193.77C328.084 193.77 335.172 194.72 336.517 192.803L328.084 193.77Z" fill="black"/>
<path opacity="0.1" d="M325.785 204.504C325.785 204.504 339.099 202.777 342.404 200.475L325.785 204.504Z" fill="black"/>
<path opacity="0.1" d="M285.158 200.475C285.158 200.475 292.632 204.694 298.191 204.504L285.158 200.475Z" fill="black"/>
<path opacity="0.1" d="M346.888 265.292C344.728 265.803 342.543 266.197 340.34 266.472C336.891 266.661 299.145 253.81 299.145 253.81L306.423 246.328L306.825 246.19C307.975 247.001 308.918 247.698 309.59 248.227C312.758 250.725 315.816 247.462 316.966 247.462C318.116 247.462 328.078 255.709 328.078 255.709C328.078 255.709 337.276 257.821 338.811 259.738C340.346 261.654 345.71 261.274 346.664 262.615C346.951 263.03 346.986 264.049 346.888 265.292Z" fill="black"/>
<path d="M276.064 215.439C276.064 215.439 266.763 215.974 261.399 213.712C256.036 211.451 238.215 206.231 233.041 209.897C227.867 213.563 215.41 216.803 221.158 231.387C226.907 245.971 229.592 246.351 229.592 246.351C231.37 247.686 232.923 249.299 234.191 251.128C235.915 253.816 252.012 259.951 256.036 259.951C260.06 259.951 267.148 259.951 277.11 266.857C287.073 273.764 296.081 274.535 296.081 274.535C296.081 274.535 308.728 279.715 312.666 280.866C316.604 282.017 334.597 287.001 338.817 285.47C343.036 283.939 345.715 274.339 345.715 274.339C345.715 274.339 347.63 265.706 346.67 264.365C345.71 263.024 340.346 263.404 338.817 261.487C337.288 259.571 328.084 257.459 328.084 257.459C328.084 257.459 318.145 249.206 316.995 249.206C315.845 249.206 312.787 252.463 309.619 249.971C303.31 245.292 296.68 241.061 289.78 237.309C282.503 233.471 276.064 215.439 276.064 215.439Z" fill="#4B4B5B"/>
<path opacity="0.1" d="M257.364 221.005C259.02 220.666 260.732 220.714 262.366 221.147C264 221.579 265.513 222.383 266.786 223.497C271.385 227.335 286.86 235.042 286.86 235.042" fill="black"/>
<path opacity="0.1" d="M372.349 220.763C372.349 220.763 351.843 223.871 348.015 228.089L372.349 220.763Z" fill="black"/>
<path d="M395.919 284.313H395.016C391.774 284.198 380.788 283.853 378.673 284.313C376.183 284.889 343.22 284.313 343.22 284.313L349.665 282.972C349.665 282.972 347.273 274.581 348.791 273.884C348.791 273.884 340.168 268.198 346.67 264.359C353.171 260.521 360.179 262.138 360.179 262.138L376.5 256.601L379.633 255.536C379.633 255.536 398.028 256.498 403.007 269.159C407.985 281.821 395.919 284.313 395.919 284.313Z" fill="#E7C7CA"/>
<path opacity="0.1" d="M395.919 284.313H395.016C400.368 279.893 412.475 266.437 376.5 256.63L379.633 255.565C379.633 255.565 398.028 256.526 403.007 269.188C407.985 281.85 395.919 284.313 395.919 284.313Z" fill="black"/>
<path d="M362.099 269.395C362.655 269.395 363.105 268.944 363.105 268.388C363.105 267.832 362.655 267.381 362.099 267.381C361.543 267.381 361.093 267.832 361.093 268.388C361.093 268.944 361.543 269.395 362.099 269.395Z" fill="#4B4B5B"/>
<path d="M356.253 271.059C356.808 271.059 357.259 270.608 357.259 270.051C357.259 269.495 356.808 269.044 356.253 269.044C355.697 269.044 355.247 269.495 355.247 270.051C355.247 270.608 355.697 271.059 356.253 271.059Z" fill="#4B4B5B"/>
<g opacity="0.1">
<path opacity="0.1" d="M327.768 57.2137C327.991 50.8833 326.866 44.5779 324.468 38.7161C316.995 39.8326 308.809 34.06 302.002 37.5132C296.966 40.0686 295.385 46.4743 295.104 52.1202C295.035 53.6109 295.023 55.1015 295.052 56.5921C295.052 56.0626 295.052 55.5274 295.104 54.9979C295.368 49.3519 296.949 42.9462 302.002 40.3909C308.809 36.9377 316.983 42.693 324.468 41.5937C326.499 46.5589 327.617 51.8506 327.768 57.2137Z" fill="black"/>
<path opacity="0.1" d="M269.855 56.1605C269.954 54.9064 269.929 53.6457 269.781 52.3965C269.171 47.3318 266.406 42.4916 265.906 37.5535C265.262 43.5103 269.051 49.2311 269.781 55.2742C269.855 55.5849 269.855 55.8612 269.855 56.1605Z" fill="black"/>
<path opacity="0.1" d="M300.145 107.809C299.789 112.079 298.783 116.643 295.546 119.475C292.31 122.306 286.349 122.151 284.549 118.272C283.974 117.121 283.888 115.78 283.33 114.629C282.054 111.993 278.915 110.968 276.173 109.938C268.384 107.02 260.87 101.305 259.197 93.1269C259.048 92.386 258.946 91.6363 258.893 90.8823C258.751 92.5956 258.854 94.3202 259.197 96.0046C260.87 104.16 268.395 109.898 276.173 112.816C278.915 113.846 282.054 114.871 283.33 117.506C283.905 118.658 284.003 119.987 284.549 121.15C286.36 125.029 292.333 125.178 295.546 122.352C298.76 119.527 299.76 114.957 300.145 110.686C300.32 108.439 300.38 106.183 300.324 103.93C300.324 105.236 300.249 106.525 300.145 107.809Z" fill="black"/>
<path opacity="0.1" d="M344.548 65.651C344.548 66.4855 344.548 67.3143 344.548 68.143C344.87 57.4381 348.791 46.6757 348.406 36.1952C348.107 45.8872 344.767 55.7979 344.548 65.651Z" fill="black"/>
<path opacity="0.1" d="M332.212 108.954C332.353 108.271 332.398 107.572 332.344 106.876C332.112 105.387 331.591 103.957 330.809 102.669C327.486 96.3384 323.698 89.8579 323.249 82.8306C323.249 83.1299 323.209 83.4061 323.203 83.7284C322.973 91.5212 327.176 98.652 330.809 105.547C331.426 106.615 331.898 107.761 332.212 108.954Z" fill="black"/>
<path opacity="0.1" d="M347.854 100.626C347.425 107.599 345.443 114.387 342.053 120.493C339.018 126.024 333.655 131.532 327.44 130.467C326.883 130.419 326.36 130.182 325.957 129.794C325.84 129.662 325.749 129.51 325.687 129.345C325.618 129.794 325.56 130.249 325.526 130.709C325.407 131.395 325.562 132.099 325.957 132.672C326.36 133.059 326.883 133.297 327.44 133.345C333.655 134.41 339.018 128.902 342.053 123.371C345.443 117.265 347.425 110.476 347.854 103.504C347.923 102.157 347.929 100.816 347.888 99.475C347.877 99.8606 347.877 100.24 347.854 100.626Z" fill="black"/>
</g>
<path opacity="0.1" d="M348.791 273.884C348.791 273.884 363.341 279.997 372.935 266.472" stroke="black" stroke-miterlimit="10"/>
<path opacity="0.1" d="M351.654 284.566C351.654 284.566 363.536 276.831 378.673 284.313" stroke="black" stroke-miterlimit="10"/>
<path opacity="0.1" d="M272.115 282.811C272.115 282.811 277.105 271.542 290.43 280.135" stroke="black" stroke-miterlimit="10"/>
<path opacity="0.1" d="M255.938 116.16L266.113 106.951C266.113 106.951 305.566 104.361 307.199 117.788C307.199 117.788 321.186 101.869 350.602 105.415L363.048 115.337L328.647 130.45L295.219 142.059L270.597 131.026L255.938 116.16Z" fill="black"/>
<path d="M255.938 116.735L266.113 107.527C266.113 107.527 305.566 104.937 307.199 118.364C307.199 118.364 321.186 102.445 350.602 105.99L363.048 115.912L328.647 131.026L295.219 142.634L270.597 131.601L255.938 116.735Z" fill="#D5D6DB"/>
<path opacity="0.1" d="M251.437 117.886L255.938 171.796L303.652 174.196L301.582 120.517L301.542 119.613L251.437 117.886Z" fill="black"/>
<path d="M251.437 116.735L255.938 170.645L303.652 173.045L301.582 119.365L301.542 118.462L251.437 116.735Z" fill="#506AD4"/>
<path opacity="0.1" d="M365.232 116.735L316.012 124.125V178.277L364.111 171.319L365.232 116.735Z" fill="black"/>
<path d="M365.232 115.584L316.012 122.974V177.126L364.111 170.168L365.232 115.584Z" fill="#506AD4"/>
<path opacity="0.3" d="M353.626 128.798L327.038 131.757L327.618 140.827L353.608 137.984L353.626 128.798Z" fill="white"/>
<path d="M258.525 199.514L261.232 206.806C261.232 206.806 265.256 210.259 269.66 208.533C274.063 206.806 277.904 205.949 279.818 204.268C281.732 202.587 284.417 194.144 284.417 194.144C284.417 194.144 287.102 184.936 289.78 182.634C292.459 180.332 299.553 148.614 289.78 151.716C280.008 154.818 272.534 183.595 272.534 183.595C272.534 183.595 270.81 185.701 268.321 185.897C265.831 186.093 260.847 185.511 259.887 187.624C258.927 189.736 255.65 195.295 258.525 199.514Z" fill="#BE6F72"/>
<path opacity="0.1" d="M316.012 124.119C313.492 124.688 310.874 124.658 308.367 124.033C305.861 123.407 303.535 122.203 301.577 120.517L303.652 174.191C303.652 174.191 308.538 179.486 316.012 178.277V124.119Z" fill="black"/>
<path d="M316.012 122.968C313.492 123.537 310.874 123.507 308.367 122.881C305.861 122.256 303.535 121.052 301.577 119.365L303.652 173.04C303.652 173.04 308.538 178.334 316.012 177.126V122.968Z" fill="#506AD4"/>
<path opacity="0.1" d="M316.012 122.968C313.492 123.537 310.874 123.507 308.367 122.881C305.861 122.256 303.535 121.052 301.577 119.365L303.652 173.04C303.652 173.04 308.538 178.334 316.012 177.126V122.968Z" fill="black"/>
<path opacity="0.1" d="M317.161 116.919C317.161 116.919 337.184 110.79 342.404 111.653L317.161 116.919Z" fill="black"/>
<path opacity="0.1" d="M294.765 114.243C294.765 114.243 275.357 109.639 272.115 110.945L294.765 114.243Z" fill="black"/>
<path opacity="0.1" d="M329.786 117.685C329.786 117.685 343.174 112.77 348.015 115.107L329.786 117.685Z" fill="black"/>
<path opacity="0.1" d="M323.042 240.981C325.117 239.421 327.326 238.048 329.642 236.878C333.091 235.214 339.415 230.898 339.415 230.898" fill="black"/>
<path opacity="0.1" d="M272.115 182.248C272.115 182.248 263.716 189.126 261.192 189.73C258.668 190.334 257.111 195.698 257.111 195.698" fill="black"/>
<path d="M360.294 198.49L357.615 205.799C357.615 205.799 353.591 209.252 349.182 207.526C344.773 205.799 340.944 204.941 339.024 203.261C337.104 201.58 334.425 193.137 334.425 193.137C334.425 193.137 331.746 183.929 329.061 181.627C326.377 179.324 319.289 147.607 329.061 150.709C338.834 153.811 346.307 182.588 346.307 182.588C346.307 182.588 348.032 184.694 350.521 184.89C353.01 185.086 357.995 184.504 358.955 186.616C359.915 188.729 363.168 194.288 360.294 198.49Z" fill="#BE6F72"/>
<path opacity="0.1" d="M355.597 185.045C355.597 185.045 361.087 188.579 361.064 192.803L355.597 185.045Z" fill="black"/>
<path d="M309.016 82.6119C323.198 82.6119 334.695 71.1016 334.695 56.9029C334.695 42.7042 323.198 31.1939 309.016 31.1939C294.833 31.1939 283.336 42.7042 283.336 56.9029C283.336 71.1016 294.833 82.6119 309.016 82.6119Z" fill="#BE6F72"/>
<path d="M292.89 50.0023C296.006 49.5131 298.737 47.7001 301.715 46.6584C308.377 44.316 315.747 45.9217 322.491 48.0339C325.077 48.8454 327.705 49.7605 330.418 49.7605C333.131 49.7605 336.011 48.6498 337.397 46.3073C338.673 44.1549 338.426 41.3578 337.351 39.0959C336.276 36.8341 334.477 35.0154 332.66 33.3003C326.681 27.6486 319.265 22.3652 311.062 22.9407C307.762 23.1767 304.606 24.3565 301.571 25.663C297.749 27.3119 294.029 29.1876 290.43 31.2802C287.665 32.8859 282.543 35.0327 280.95 37.9679C277.329 44.5808 287.257 50.8886 292.89 50.0023Z" fill="#3E373A"/>
<path opacity="0.1" d="M337.397 43.8901C336.011 46.2325 333.131 47.3433 330.418 47.3433C327.705 47.3433 325.077 46.4627 322.485 45.6512C315.742 43.539 308.377 41.9275 301.709 44.2757C298.737 45.3174 296.001 47.1534 292.885 47.6138C288.343 48.3275 281.031 44.3678 280.238 39.3319C279.347 45.1505 287.826 50.1346 292.885 49.3404C296.001 48.8512 298.737 47.0383 301.709 46.0023C308.377 43.6541 315.742 45.2656 322.485 47.3778C325.077 48.1893 327.699 49.1044 330.418 49.0699C333.137 49.0354 336.011 47.9649 337.397 45.6167C338.115 44.3393 338.398 42.8622 338.202 41.4096C338.112 42.2842 337.838 43.1297 337.397 43.8901Z" fill="black"/>
<path d="M545.793 355.8C545.793 355.8 549.202 360.26 544.218 367C539.234 373.739 535.129 379.426 536.785 383.627C536.785 383.627 544.304 371.115 550.421 370.936C556.537 370.758 552.513 363.322 545.793 355.8Z" fill="#506AD4"/>
<path opacity="0.1" d="M545.793 355.8C546.09 356.231 546.324 356.702 546.489 357.198C552.456 364.22 555.641 370.775 549.898 370.936C544.551 371.092 538.142 380.663 536.607 383.074C536.656 383.269 536.715 383.461 536.785 383.65C536.785 383.65 544.304 371.138 550.421 370.959C556.537 370.781 552.513 363.322 545.793 355.8Z" fill="black"/>
<path d="M552.117 361.486C552.117 363.057 551.938 364.329 551.726 364.329C551.513 364.329 551.329 363.057 551.329 361.486C551.329 359.915 551.548 360.657 551.766 360.657C551.984 360.657 552.117 359.915 552.117 361.486Z" fill="#FFD037"/>
<path d="M554.295 363.362C552.922 364.111 551.72 364.565 551.617 364.375C551.513 364.185 552.542 363.42 553.916 362.649C555.29 361.878 554.75 362.442 554.853 362.649C554.957 362.856 555.675 362.609 554.295 363.362Z" fill="#FFD037"/>
<path d="M527.777 355.8C527.777 355.8 524.368 360.26 529.352 367C534.336 373.739 538.441 379.426 536.779 383.627C536.779 383.627 529.266 371.115 523.143 370.936C517.021 370.758 521.074 363.322 527.777 355.8Z" fill="#506AD4"/>
<path opacity="0.1" d="M527.777 355.8C527.48 356.231 527.246 356.702 527.081 357.198C521.114 364.22 517.929 370.775 523.672 370.936C529.013 371.092 535.428 380.663 536.963 383.074C536.915 383.27 536.853 383.463 536.779 383.65C536.779 383.65 529.266 371.138 523.143 370.959C517.021 370.781 521.074 363.322 527.777 355.8Z" fill="black"/>
<path d="M521.442 361.486C521.442 363.057 521.614 364.329 521.833 364.329C522.051 364.329 522.229 363.057 522.229 361.486C522.229 359.915 522.005 360.657 521.792 360.657C521.58 360.657 521.442 359.915 521.442 361.486Z" fill="#FFD037"/>
<path d="M519.268 363.362C520.642 364.111 521.844 364.565 521.947 364.375C522.051 364.185 521.022 363.42 519.648 362.649C518.274 361.878 518.814 362.442 518.711 362.649C518.607 362.856 517.889 362.609 519.268 363.362Z" fill="#FFD037"/>
<path opacity="0.1" d="M536.785 417.768C556.469 417.768 572.427 415.317 572.427 412.294C572.427 409.271 556.469 406.821 536.785 406.821C517.1 406.821 501.143 409.271 501.143 412.294C501.143 415.317 517.1 417.768 536.785 417.768Z" fill="#506AD4"/>
<path d="M555.129 377.613L554.956 379.005L554.715 380.974L554.617 381.797L554.376 383.765L554.272 384.588L554.037 386.551L551.306 408.939C551.065 410.936 547.805 412.496 543.867 412.496H529.697C525.759 412.496 522.505 410.936 522.258 408.939L519.527 386.551L519.286 384.588L519.188 383.765L518.947 381.797L518.843 380.974L518.607 379.005L518.435 377.613C518.303 376.462 520.062 375.529 522.292 375.529H551.277C553.502 375.529 555.267 376.479 555.129 377.613Z" fill="#65617D"/>
<path d="M554.956 379.005L554.721 380.974H518.849L518.607 379.005H554.956Z" fill="#9D9CB5"/>
<path d="M554.617 381.797L554.382 383.765H519.188L518.947 381.797H554.617Z" fill="#9D9CB5"/>
<path d="M554.278 384.588L554.037 386.556H519.527L519.292 384.588H554.278Z" fill="#9D9CB5"/>
</g>
<defs>
<linearGradient id="paint0_linear_42_21" x1="314.247" y1="288.871" x2="314.247" y2="1.36159e-05" gradientUnits="userSpaceOnUse">
<stop stop-color="#808080" stop-opacity="0.25"/>
<stop offset="0.54" stop-color="#808080" stop-opacity="0.12"/>
<stop offset="1" stop-color="#808080" stop-opacity="0.1"/>
</linearGradient>
<clipPath id="clip0_42_21">
<rect width="588" height="468" fill="white"/>
</clipPath>
</defs>
</svg>
